<svg xmlns="http://www.w3.org/2000/svg" viewBox="0 0 400 400">
<rect width="400" height="400" fill="#0a0a0f"/>
<circle cx="200" cy="200" r="160" fill="none" stroke="#1a1a2e" stroke-width=".5" stroke-dasharray="3 5"/>
<circle cx="200" cy="200" r="88" fill="none" stroke="#4a6fa5" stroke-width="1.5" opacity=".6"/>
<circle cx="200" cy="200" r="96" fill="none" stroke="#4a6fa5" stroke-width=".5" opacity=".3"/>
<polygon points="200,182 215,200 200,218 185,200" fill="none" stroke="#7eb4f0" stroke-width="1.5" opacity=".8"/>
<line x1="200" y1="112" x2="200" y2="60" stroke="#a57a4a" stroke-width="1" opacity=".5"/>
<line x1="276" y1="156" x2="318" y2="128" stroke="#a57a4a" stroke-width=".8" opacity=".4"/>
<line x1="276" y1="244" x2="310" y2="270" stroke="#a57a4a" stroke-width="1.2" opacity=".6"/>
<line x1="200" y1="288" x2="200" y2="340" stroke="#a57a4a" stroke-width=".7" opacity=".3"/>
<line x1="124" y1="244" x2="82" y2="270" stroke="#a57a4a" stroke-width="1" opacity=".5"/>
<line x1="124" y1="156" x2="90" y2="128" stroke="#a57a4a" stroke-width=".9" opacity=".4"/>
<path d="M140,170 A70,70 0 0 1 230,140" fill="none" stroke="#5a9a6a" stroke-width="2" opacity=".5" stroke-linecap="round"/>
<path d="M260,200 A80,80 0 0 1 220,280" fill="none" stroke="#5a9a6a" stroke-width="2" opacity=".4" stroke-linecap="round"/>
<path d="M170,260 A90,90 0 0 1 120,190" fill="none" stroke="#5a9a6a" stroke-width="2" opacity=".45" stroke-linecap="round"/>
<circle cx="200" cy="40" r="3" fill="#7eb4f0" opacity=".5"/>
<circle cx="340" cy="120" r="2.5" fill="#90c0f0" opacity=".4"/>
<circle cx="360" cy="200" r="2" fill="#a0d0f0" opacity=".6"/>
<circle cx="340" cy="280" r="3.5" fill="#80b0e0" opacity=".45"/>
<circle cx="200" cy="360" r="2" fill="#70a0d0" opacity=".5"/>
<circle cx="60" cy="280" r="3" fill="#90c0f0" opacity=".4"/>
<circle cx="40" cy="200" r="2.5" fill="#80b0e0" opacity=".55"/>
<circle cx="60" cy="120" r="2" fill="#a0d0f0" opacity=".4"/>
<circle cx="280" cy="60" r="1.8" fill="#c0d8f0" opacity=".35"/>
<circle cx="320" cy="320" r="2.2" fill="#b0c8e0" opacity=".4"/>
<circle cx="120" cy="340" r="1.5" fill="#90b8d0" opacity=".3"/>
<circle cx="80" cy="80" r="2.8" fill="#a0c0e0" opacity=".45"/>
<text x="200" y="390" text-anchor="middle" fill="#222" font-family="monospace" font-size="10">cycle 600</text>
</svg>
